<mxfile host="app.diagrams.net" modified="2023-06-23T07:21:25.751Z" agent="Mozilla/5.0 (Windows NT 10.0; Win64; x64; rv:109.0) Gecko/20100101 Firefox/110.0" etag="rmt_QmgaIKL0PPqi7DMQ" version="21.4.0" type="github">
  <diagram name="Page-1" id="ClYujNeUdSKMkW_tEUQQ">
    <mxGraphModel dx="1718" dy="1523" grid="1" gridSize="10" guides="1" tooltips="1" connect="1" arrows="1" fold="1" page="1" pageScale="1" pageWidth="4681" pageHeight="3300" math="0" shadow="0">
      <root>
        <mxCell id="0" />
        <mxCell id="1" parent="0" />
        <mxCell id="V6i72SZblIywNEpMeelm-6" style="edgeStyle=orthogonalEdgeStyle;rounded=0;orthogonalLoop=1;jettySize=auto;html=1;exitX=1;exitY=0.5;exitDx=0;exitDy=0;entryX=0;entryY=0.5;entryDx=0;entryDy=0;" edge="1" parent="1" source="V6i72SZblIywNEpMeelm-1" target="V6i72SZblIywNEpMeelm-4">
          <mxGeometry relative="1" as="geometry" />
        </mxCell>
        <mxCell id="V6i72SZblIywNEpMeelm-1" value="&lt;font style=&quot;font-size: 17px;&quot;&gt;&lt;b&gt;&lt;font style=&quot;font-size: 17px;&quot;&gt;&lt;font style=&quot;font-size: 17px;&quot;&gt;&lt;font style=&quot;font-size: 17px;&quot;&gt;&lt;font style=&quot;font-size: 18px;&quot;&gt;&lt;font style=&quot;font-size: 19px;&quot;&gt;&lt;font style=&quot;font-size: 20px;&quot;&gt;&lt;font style=&quot;font-size: 21px;&quot;&gt;&lt;font style=&quot;font-size: 22px;&quot;&gt;&lt;font style=&quot;font-size: 23px;&quot;&gt;&lt;font style=&quot;font-size: 24px;&quot;&gt;&lt;font style=&quot;font-size: 25px;&quot;&gt;&lt;font style=&quot;font-size: 26px;&quot;&gt;&lt;font style=&quot;font-size: 27px;&quot;&gt;&lt;font style=&quot;font-size: 28px;&quot;&gt;Soil&lt;/font&gt;&lt;/font&gt;&lt;/font&gt;&lt;/font&gt;&lt;/font&gt;&lt;/font&gt;&lt;/font&gt;&lt;/font&gt;&lt;/font&gt;&lt;/font&gt;&lt;/font&gt;&lt;/font&gt;&lt;/font&gt;&lt;/font&gt;&lt;/b&gt;&lt;/font&gt;" style="ellipse;whiteSpace=wrap;html=1;aspect=fixed;fillColor=#dae8fc;strokeColor=#6c8ebf;" vertex="1" parent="1">
          <mxGeometry x="1000" y="880" width="120" height="120" as="geometry" />
        </mxCell>
        <mxCell id="V6i72SZblIywNEpMeelm-14" style="edgeStyle=orthogonalEdgeStyle;rounded=0;orthogonalLoop=1;jettySize=auto;html=1;exitX=1;exitY=0.5;exitDx=0;exitDy=0;entryX=0;entryY=0.5;entryDx=0;entryDy=0;" edge="1" parent="1" source="V6i72SZblIywNEpMeelm-2" target="V6i72SZblIywNEpMeelm-13">
          <mxGeometry relative="1" as="geometry" />
        </mxCell>
        <mxCell id="V6i72SZblIywNEpMeelm-2" value="&lt;font style=&quot;font-size: 29px;&quot;&gt;&lt;b&gt;&lt;font style=&quot;font-size: 29px;&quot;&gt;&lt;font style=&quot;font-size: 28px;&quot;&gt;&lt;font style=&quot;font-size: 28px;&quot;&gt;DEM&lt;/font&gt;&lt;/font&gt;&lt;/font&gt;&lt;/b&gt;&lt;/font&gt;" style="ellipse;whiteSpace=wrap;html=1;aspect=fixed;fillColor=#dae8fc;strokeColor=#6c8ebf;" vertex="1" parent="1">
          <mxGeometry x="1000" y="1080" width="120" height="120" as="geometry" />
        </mxCell>
        <mxCell id="V6i72SZblIywNEpMeelm-25" style="edgeStyle=orthogonalEdgeStyle;rounded=0;orthogonalLoop=1;jettySize=auto;html=1;exitX=1;exitY=0.5;exitDx=0;exitDy=0;entryX=0;entryY=0.5;entryDx=0;entryDy=0;" edge="1" parent="1" source="V6i72SZblIywNEpMeelm-3" target="V6i72SZblIywNEpMeelm-23">
          <mxGeometry relative="1" as="geometry" />
        </mxCell>
        <mxCell id="V6i72SZblIywNEpMeelm-3" value="&lt;font style=&quot;font-size: 28px;&quot;&gt;&lt;b&gt;&lt;font style=&quot;font-size: 28px;&quot;&gt;Water&lt;/font&gt;&lt;/b&gt;&lt;/font&gt;" style="ellipse;whiteSpace=wrap;html=1;aspect=fixed;fillColor=#dae8fc;strokeColor=#6c8ebf;" vertex="1" parent="1">
          <mxGeometry x="1000" y="1405" width="120" height="120" as="geometry" />
        </mxCell>
        <mxCell id="V6i72SZblIywNEpMeelm-7" style="edgeStyle=orthogonalEdgeStyle;rounded=0;orthogonalLoop=1;jettySize=auto;html=1;exitX=1;exitY=0.5;exitDx=0;exitDy=0;entryX=0;entryY=0.5;entryDx=0;entryDy=0;" edge="1" parent="1" source="V6i72SZblIywNEpMeelm-4" target="V6i72SZblIywNEpMeelm-5">
          <mxGeometry relative="1" as="geometry" />
        </mxCell>
        <mxCell id="V6i72SZblIywNEpMeelm-4" value="&lt;b&gt;&lt;font style=&quot;font-size: 28px;&quot;&gt;Soil raster&lt;br&gt;&lt;/font&gt;&lt;/b&gt;" style="rounded=1;whiteSpace=wrap;html=1;fillColor=#dae8fc;strokeColor=#6c8ebf;" vertex="1" parent="1">
          <mxGeometry x="1240" y="895" width="200" height="90" as="geometry" />
        </mxCell>
        <mxCell id="V6i72SZblIywNEpMeelm-9" style="edgeStyle=orthogonalEdgeStyle;rounded=0;orthogonalLoop=1;jettySize=auto;html=1;exitX=1;exitY=0.5;exitDx=0;exitDy=0;" edge="1" parent="1" source="V6i72SZblIywNEpMeelm-5" target="V6i72SZblIywNEpMeelm-8">
          <mxGeometry relative="1" as="geometry" />
        </mxCell>
        <mxCell id="V6i72SZblIywNEpMeelm-5" value="&lt;font style=&quot;font-size: 28px;&quot;&gt;&lt;b&gt;Soil rank&lt;br&gt;&lt;/b&gt;&lt;/font&gt;" style="rounded=1;whiteSpace=wrap;html=1;fillColor=#dae8fc;strokeColor=#6c8ebf;" vertex="1" parent="1">
          <mxGeometry x="1560" y="895" width="200" height="90" as="geometry" />
        </mxCell>
        <mxCell id="V6i72SZblIywNEpMeelm-8" value="&lt;font style=&quot;font-size: 28px;&quot;&gt;&lt;b&gt;Soil rank x 2&lt;br&gt;&lt;/b&gt;&lt;/font&gt;" style="rounded=1;whiteSpace=wrap;html=1;fillColor=#dae8fc;strokeColor=#6c8ebf;" vertex="1" parent="1">
          <mxGeometry x="1880" y="895" width="200" height="90" as="geometry" />
        </mxCell>
        <mxCell id="V6i72SZblIywNEpMeelm-10" value="&lt;font style=&quot;font-size: 28px;&quot;&gt;&lt;b&gt;Soil slope rank&lt;br&gt;&lt;/b&gt;&lt;/font&gt;" style="rounded=1;whiteSpace=wrap;html=1;fillColor=#dae8fc;strokeColor=#6c8ebf;" vertex="1" parent="1">
          <mxGeometry x="1880" y="1030" width="200" height="90" as="geometry" />
        </mxCell>
        <mxCell id="V6i72SZblIywNEpMeelm-12" style="edgeStyle=orthogonalEdgeStyle;rounded=0;orthogonalLoop=1;jettySize=auto;html=1;exitX=1;exitY=0.5;exitDx=0;exitDy=0;" edge="1" parent="1" source="V6i72SZblIywNEpMeelm-11" target="V6i72SZblIywNEpMeelm-10">
          <mxGeometry relative="1" as="geometry" />
        </mxCell>
        <mxCell id="V6i72SZblIywNEpMeelm-11" value="&lt;font style=&quot;font-size: 28px;&quot;&gt;&lt;b&gt;Slope rank&lt;br&gt;&lt;/b&gt;&lt;/font&gt;" style="rounded=1;whiteSpace=wrap;html=1;fillColor=#dae8fc;strokeColor=#6c8ebf;" vertex="1" parent="1">
          <mxGeometry x="1560" y="1030" width="200" height="90" as="geometry" />
        </mxCell>
        <mxCell id="V6i72SZblIywNEpMeelm-16" style="edgeStyle=orthogonalEdgeStyle;rounded=0;orthogonalLoop=1;jettySize=auto;html=1;exitX=1;exitY=0.25;exitDx=0;exitDy=0;entryX=0;entryY=0.5;entryDx=0;entryDy=0;" edge="1" parent="1" source="V6i72SZblIywNEpMeelm-13" target="V6i72SZblIywNEpMeelm-11">
          <mxGeometry relative="1" as="geometry" />
        </mxCell>
        <mxCell id="V6i72SZblIywNEpMeelm-18" style="edgeStyle=orthogonalEdgeStyle;rounded=0;orthogonalLoop=1;jettySize=auto;html=1;exitX=1;exitY=0.75;exitDx=0;exitDy=0;entryX=0;entryY=0.5;entryDx=0;entryDy=0;" edge="1" parent="1" source="V6i72SZblIywNEpMeelm-13" target="V6i72SZblIywNEpMeelm-17">
          <mxGeometry relative="1" as="geometry" />
        </mxCell>
        <mxCell id="V6i72SZblIywNEpMeelm-13" value="&lt;font style=&quot;font-size: 28px;&quot;&gt;&lt;b&gt;Slope&lt;br&gt;&lt;/b&gt;&lt;/font&gt;" style="rounded=1;whiteSpace=wrap;html=1;fillColor=#dae8fc;strokeColor=#6c8ebf;" vertex="1" parent="1">
          <mxGeometry x="1240" y="1095" width="200" height="90" as="geometry" />
        </mxCell>
        <mxCell id="V6i72SZblIywNEpMeelm-20" style="edgeStyle=orthogonalEdgeStyle;rounded=0;orthogonalLoop=1;jettySize=auto;html=1;exitX=0.5;exitY=1;exitDx=0;exitDy=0;entryX=0.5;entryY=0;entryDx=0;entryDy=0;" edge="1" parent="1" source="V6i72SZblIywNEpMeelm-17" target="V6i72SZblIywNEpMeelm-19">
          <mxGeometry relative="1" as="geometry" />
        </mxCell>
        <mxCell id="V6i72SZblIywNEpMeelm-17" value="&lt;font style=&quot;font-size: 28px;&quot;&gt;&lt;b&gt;Bad slope&lt;br&gt;&lt;/b&gt;&lt;/font&gt;" style="rounded=1;whiteSpace=wrap;html=1;fillColor=#f8cecc;strokeColor=#b85450;" vertex="1" parent="1">
          <mxGeometry x="1560" y="1160" width="200" height="90" as="geometry" />
        </mxCell>
        <mxCell id="V6i72SZblIywNEpMeelm-27" style="edgeStyle=orthogonalEdgeStyle;rounded=0;orthogonalLoop=1;jettySize=auto;html=1;exitX=1;exitY=0.5;exitDx=0;exitDy=0;entryX=0;entryY=0.5;entryDx=0;entryDy=0;" edge="1" parent="1" source="V6i72SZblIywNEpMeelm-19" target="V6i72SZblIywNEpMeelm-26">
          <mxGeometry relative="1" as="geometry" />
        </mxCell>
        <mxCell id="V6i72SZblIywNEpMeelm-19" value="&lt;font style=&quot;font-size: 28px;&quot;&gt;&lt;b&gt;Unsuitable areas&lt;br&gt;&lt;/b&gt;&lt;/font&gt;" style="rounded=1;whiteSpace=wrap;html=1;fillColor=#f8cecc;strokeColor=#b85450;" vertex="1" parent="1">
          <mxGeometry x="1560" y="1290" width="200" height="90" as="geometry" />
        </mxCell>
        <mxCell id="V6i72SZblIywNEpMeelm-22" style="edgeStyle=orthogonalEdgeStyle;rounded=0;orthogonalLoop=1;jettySize=auto;html=1;exitX=0.5;exitY=0;exitDx=0;exitDy=0;entryX=0.5;entryY=1;entryDx=0;entryDy=0;" edge="1" parent="1" source="V6i72SZblIywNEpMeelm-21" target="V6i72SZblIywNEpMeelm-19">
          <mxGeometry relative="1" as="geometry" />
        </mxCell>
        <mxCell id="V6i72SZblIywNEpMeelm-21" value="&lt;font style=&quot;font-size: 28px;&quot;&gt;&lt;b&gt;Water buffer raster&lt;br&gt;&lt;/b&gt;&lt;/font&gt;" style="rounded=1;whiteSpace=wrap;html=1;fillColor=#f8cecc;strokeColor=#b85450;" vertex="1" parent="1">
          <mxGeometry x="1560" y="1420" width="200" height="90" as="geometry" />
        </mxCell>
        <mxCell id="V6i72SZblIywNEpMeelm-24" style="edgeStyle=orthogonalEdgeStyle;rounded=0;orthogonalLoop=1;jettySize=auto;html=1;exitX=1;exitY=0.5;exitDx=0;exitDy=0;entryX=0;entryY=0.5;entryDx=0;entryDy=0;" edge="1" parent="1" source="V6i72SZblIywNEpMeelm-23" target="V6i72SZblIywNEpMeelm-21">
          <mxGeometry relative="1" as="geometry" />
        </mxCell>
        <mxCell id="V6i72SZblIywNEpMeelm-23" value="&lt;font style=&quot;font-size: 28px;&quot;&gt;&lt;b&gt;Water buffer&lt;br&gt;&lt;/b&gt;&lt;/font&gt;" style="rounded=1;whiteSpace=wrap;html=1;fillColor=#dae8fc;strokeColor=#6c8ebf;" vertex="1" parent="1">
          <mxGeometry x="1240" y="1420" width="200" height="90" as="geometry" />
        </mxCell>
        <mxCell id="V6i72SZblIywNEpMeelm-30" style="edgeStyle=orthogonalEdgeStyle;rounded=0;orthogonalLoop=1;jettySize=auto;html=1;exitX=1;exitY=0.5;exitDx=0;exitDy=0;entryX=0;entryY=0.5;entryDx=0;entryDy=0;" edge="1" parent="1" source="V6i72SZblIywNEpMeelm-26" target="V6i72SZblIywNEpMeelm-28">
          <mxGeometry relative="1" as="geometry" />
        </mxCell>
        <mxCell id="V6i72SZblIywNEpMeelm-26" value="&lt;font style=&quot;font-size: 28px;&quot;&gt;&lt;b&gt;Suitable areas&lt;br&gt;&lt;/b&gt;&lt;/font&gt;" style="rounded=1;whiteSpace=wrap;html=1;fillColor=#d5e8d4;strokeColor=#82b366;" vertex="1" parent="1">
          <mxGeometry x="1880" y="1290" width="200" height="90" as="geometry" />
        </mxCell>
        <mxCell id="V6i72SZblIywNEpMeelm-28" value="&lt;font style=&quot;font-size: 28px;&quot;&gt;&lt;b&gt;Final rank&lt;br&gt;&lt;/b&gt;&lt;/font&gt;" style="rounded=1;whiteSpace=wrap;html=1;fillColor=#d5e8d4;strokeColor=#82b366;" vertex="1" parent="1">
          <mxGeometry x="2200" y="1290" width="200" height="90" as="geometry" />
        </mxCell>
      </root>
    </mxGraphModel>
  </diagram>
</mxfile>
